<svg width="20" height="20" viewBox="0 0 20 20" fill="none" xmlns="http://www.w3.org/2000/svg">
<path fill-rule="evenodd" clip-rule="evenodd" d="M11.6136 3.5C12.1416 3.5 12.6306 3.77755 12.9014 4.2308L13.4843 5.2067C13.755 5.65995 14.2441 5.9375 14.7721 5.9375H15H16C16.8284 5.9375 17.5 6.60907 17.5 7.4375V15C17.5 15.8284 16.8284 16.5 16 16.5H14.0784H5.92162H4C3.17157 16.5 2.5 15.8284 2.5 15V7.4375C2.5 6.60907 3.17157 5.9375 4 5.9375H5H5.2277C5.75578 5.9375 6.24496 5.65981 6.51565 5.20638L7.09786 4.23112C7.36855 3.77769 7.85773 3.5 8.38581 3.5H11.6136Z" stroke="#005288" stroke-width="1.5"/>
<path fill-rule="evenodd" clip-rule="evenodd" d="M12.5 11C12.5 9.61906 11.3809 8.5 10 8.5C8.61906 8.5 7.5 9.61906 7.5 11C7.5 12.3809 8.61906 13.5 10 13.5C11.3809 13.5 12.5 12.3809 12.5 11Z" stroke="#4D86AC" stroke-width="1.5"/>
<circle cx="14.75" cy="8.25" r="0.75" fill="#005288"/>
</svg>
