<svg width="24" height="24" viewBox="0 0 24 24" fill="none" xmlns="http://www.w3.org/2000/svg">
<path d="M19.5 14V4C19.5 3.44772 19.0523 3 18.5 3H5.5C4.94772 3 4.5 3.44772 4.5 4V20C4.5 20.5523 4.94772 21 5.5 21H12" stroke="#005288" stroke-width="1.5" stroke-linecap="round" stroke-linejoin="round"/>
<path d="M8 13L12 13" stroke="#4D86AC" stroke-width="1.5" stroke-linecap="round" stroke-linejoin="round"/>
<path d="M8.2373 8.50365L8.96674 9.81862C9.11075 10.0782 9.44792 10.1559 9.69101 9.98547L13 7.66553" stroke="#4D86AC" stroke-width="1.5" stroke-linecap="round" stroke-linejoin="round"/>
<path d="M18.2067 16H15C14.4477 16 14 16.4477 14 17V19.8697C14 20.3038 14.5152 20.5317 14.8363 20.2397L18.543 16.87C18.8812 16.5625 18.6637 16 18.2067 16Z" fill="#F4F8FC" stroke="#005288" stroke-width="1.5"/>
</svg>
