<svg width="18" height="18" viewBox="0 0 18 18" fill="none" xmlns="http://www.w3.org/2000/svg">
<path d="M9.47565 14.9246C9.17591 14.7599 8.81275 14.7598 8.51289 14.9243L4.91434 16.8991C4.82159 16.9507 4.72002 16.9826 4.61544 16.993C4.51087 17.0035 4.40535 16.9922 4.30495 16.9599C4.20455 16.9276 4.11123 16.8749 4.03035 16.8048C3.94948 16.7347 3.88263 16.6486 3.83365 16.5514C3.75108 16.3896 3.72297 16.2035 3.75385 16.023L4.45004 11.7737C4.50153 11.4594 4.40027 11.1394 4.17737 10.912L1.23335 7.90829C1.0839 7.75127 1 7.53877 1 7.31725C1 7.09573 1.0839 6.88322 1.23335 6.7262C1.357 6.59518 1.51806 6.50976 1.69223 6.48283L5.72785 5.86774C6.05699 5.81758 6.33958 5.60689 6.48161 5.30576L8.29274 1.46591C8.33912 1.3674 8.40364 1.27943 8.48259 1.20704C8.56155 1.13464 8.6534 1.07926 8.75287 1.04405C8.85234 1.00885 8.95747 0.994517 9.06225 1.00188C9.16703 1.00924 9.26938 1.03815 9.36346 1.08695C9.52159 1.16707 9.64928 1.30057 9.7259 1.46591L11.5403 5.30633C11.6824 5.60713 11.9648 5.81757 12.2936 5.86773L16.3264 6.48283C16.5343 6.51795 16.7206 6.63721 16.8451 6.81483C16.9695 6.99244 17.0221 7.21414 16.9915 7.43198C16.9648 7.61276 16.8832 7.77977 16.7587 7.90829L13.8118 10.912C13.5886 11.1394 13.4872 11.4595 13.5387 11.774L14.2349 16.023C14.2604 16.1768 14.2441 16.335 14.1879 16.4797C14.1317 16.6243 14.0378 16.7495 13.917 16.8412C13.7961 16.9328 13.653 16.9871 13.5041 16.998C13.3551 17.0088 13.2063 16.9758 13.0744 16.9026L9.47565 14.9246Z" fill="#005288" stroke="#E6E7EB" stroke-linecap="round" stroke-linejoin="round"/>
</svg>
