<svg width="17" height="16" viewBox="0 0 17 16" fill="none" xmlns="http://www.w3.org/2000/svg">
<path d="M15.5 10.1678C14.7598 9.44999 13.3363 8 11.7885 8C10.2399 8 9.34727 11.1984 7.85801 11.1984C6.36875 11.1984 5.01582 9.75223 3.82249 10.6794C2.62916 11.6057 1.49998 13.5 1.49998 13.5" stroke="#4D86AC" stroke-width="1.5" stroke-linecap="round" stroke-linejoin="round"/>
<path fill-rule="evenodd" clip-rule="evenodd" d="M15.5 2.5C15.5 1.67157 14.8284 1 14 1H2.99998C2.17156 1 1.49998 1.67157 1.49998 2.5V4.91005V11.09V13.5C1.49998 14.3284 2.17156 15 2.99998 15H14C14.8284 15 15.5 14.3284 15.5 13.5V11.09V4.91005V2.5Z" stroke="#005288" stroke-width="1.5"/>
<path fill-rule="evenodd" clip-rule="evenodd" d="M6.99998 5.25C6.99998 5.94068 6.44067 6.5 5.74998 6.5C5.05998 6.5 4.49998 5.94068 4.49998 5.25C4.49998 4.55932 5.05998 4 5.74998 4C6.43999 4.00068 6.99931 4.55999 6.99998 5.25Z" fill="#005288"/>
</svg>
