<svg width="20" height="22" viewBox="0 0 20 22" fill="none" xmlns="http://www.w3.org/2000/svg">
<path fill-rule="evenodd" clip-rule="evenodd" d="M18.9808 6.56191L18.3334 5.4381C17.7857 4.48718 16.572 4.15914 15.6201 4.70476V4.70476C15.167 4.97178 14.6264 5.04753 14.1174 4.91532C13.6084 4.78311 13.1729 4.4538 12.9069 4C12.7357 3.71156 12.6438 3.38302 12.6403 3.04762V3.04762C12.6557 2.50988 12.4529 1.98879 12.0781 1.60305C11.7033 1.21731 11.1883 0.999778 10.6506 1H9.34627C8.81943 0.999994 8.31431 1.21001 7.94267 1.58357C7.57104 1.95713 7.36353 2.46345 7.36606 2.99048V2.99048C7.35044 4.07861 6.46416 4.95249 5.37632 4.95238C5.04104 4.9489 4.71263 4.85691 4.42429 4.68571V4.68571C3.47243 4.14009 2.2587 4.46813 1.71102 5.41905L1.01604 6.56191C0.469015 7.51163 0.792473 8.72505 1.73958 9.27619V9.27619C2.35521 9.63175 2.73446 10.2889 2.73446 11C2.73446 11.7111 2.35521 12.3682 1.73958 12.7238V12.7238C0.793675 13.2712 0.469865 14.4817 1.01604 15.4286V15.4286L1.67293 16.5619C1.92955 17.0251 2.3601 17.3669 2.86932 17.5117C3.37853 17.6565 3.92443 17.5923 4.38621 17.3333V17.3333C4.84017 17.0683 5.38113 16.9957 5.88885 17.1317C6.39657 17.2676 6.82898 17.6008 7.08997 18.0571C7.2611 18.3456 7.35306 18.6741 7.35654 19.0095V19.0095C7.35654 20.1088 8.24737 21 9.34627 21H10.6506C11.7457 21 12.635 20.1146 12.6403 19.019V19.019C12.6377 18.4904 12.8466 17.9826 13.2203 17.6088C13.594 17.2349 14.1015 17.026 14.63 17.0286C14.9645 17.0375 15.2916 17.1291 15.5821 17.2952V17.2952C16.5314 17.8425 17.7444 17.5189 18.2953 16.5714V16.5714L18.9808 15.4286C19.2461 14.973 19.3189 14.4304 19.1831 13.9209C19.0473 13.4115 18.7141 12.9772 18.2572 12.7143V12.7143C17.8004 12.4514 17.4672 12.0171 17.3314 11.5076C17.1956 10.9982 17.2684 10.4556 17.5337 10C17.7062 9.69865 17.956 9.44879 18.2572 9.27619V9.27619C19.1987 8.72535 19.5214 7.51902 18.9808 6.57143V6.57143V6.56191Z" stroke="white" stroke-linecap="round" stroke-linejoin="round"/>
<circle cx="10" cy="11" r="2.5" stroke="white" stroke-linecap="round" stroke-linejoin="round"/>
</svg>
