<svg width="24" height="24" viewBox="0 0 24 24" fill="none" xmlns="http://www.w3.org/2000/svg">
<path d="M15 16V21" stroke="#4D86AC" stroke-width="1.5" stroke-linecap="round" stroke-linejoin="round"/>
<path d="M9 17V21" stroke="#4D86AC" stroke-width="1.5" stroke-linecap="round" stroke-linejoin="round"/>
<path d="M3 18V20C3 20.5523 3.44772 21 4 21H20C20.5523 21 21 20.5523 21 20V14" stroke="#005288" stroke-width="1.5" stroke-linecap="round" stroke-linejoin="round"/>
<path d="M3 6H10.875M21 6H17.625" stroke="#005288" stroke-width="1.5" stroke-linecap="round" stroke-linejoin="round"/>
<path d="M16 3H12C11.4477 3 11 3.44772 11 4V6.66667C11 6.88304 11.0702 7.09357 11.2 7.26667L13.2 9.93333C13.6 10.4667 14.4 10.4667 14.8 9.93333L16.8 7.26667C16.9298 7.09357 17 6.88304 17 6.66667V4C17 3.44772 16.5523 3 16 3Z" stroke="#4D86AC" stroke-width="1.5" stroke-linecap="round" stroke-linejoin="round"/>
</svg>
