<svg width="24" height="24" viewBox="0 0 24 24" fill="none" xmlns="http://www.w3.org/2000/svg">
<path d="M15.7453 3H8.25473C7.56176 3 7 3.65189 7 4.45604V19.544C7 20.3481 7.56176 21 8.25473 21H15.7453C16.4382 21 17 20.3481 17 19.544V4.45604C17 3.65189 16.4382 3 15.7453 3Z" stroke="#005288" stroke-width="1.5" stroke-linecap="round" stroke-linejoin="round"/>
<path d="M19.7295 14C20.27 13.3931 20.5368 12.6883 20.4959 11.9757C20.455 11.2632 20.1083 10.5753 19.5 10" stroke="#4D86AC" stroke-width="1.5" stroke-linecap="round" stroke-linejoin="round"/>
<path d="M4.27047 14C3.73004 13.3931 3.4632 12.6883 3.50408 11.9757C3.54497 11.2632 3.89173 10.5753 4.5 10" stroke="#4D86AC" stroke-width="1.5" stroke-linecap="round" stroke-linejoin="round"/>
<path d="M21.411 17C22.51 15.5346 23.068 13.7466 22.9934 11.9294C22.9187 10.1123 22.2158 8.374 21 7" stroke="#4D86AC" stroke-width="1.5" stroke-linecap="round" stroke-linejoin="round"/>
<path d="M2.58904 17C1.48996 15.5346 0.931952 13.7466 1.00663 11.9294C1.08131 10.1123 1.78423 8.374 3 7" stroke="#4D86AC" stroke-width="1.5" stroke-linecap="round" stroke-linejoin="round"/>
</svg>
