<svg width="24" height="24" viewBox="0 0 24 24" fill="none" xmlns="http://www.w3.org/2000/svg">
<path fill-rule="evenodd" clip-rule="evenodd" d="M17.2745 0.75H6.72553C3.05316 0.75 0.75 3.35187 0.75 7.034V16.966C0.75 20.6481 3.04341 23.25 6.72553 23.25H17.2684C20.9566 23.25 23.2488 20.6481 23.2488 16.966V7.034C23.2537 3.35187 20.9603 0.75 17.2745 0.75Z" stroke="white" stroke-linecap="round" stroke-linejoin="round"/>
<path fill-rule="evenodd" clip-rule="evenodd" d="M10.4473 8.10815C10.4473 9.35179 9.44016 10.3589 8.19653 10.3589C6.95412 10.3589 5.9458 9.35179 5.9458 8.10815C5.9458 6.86452 6.95412 5.85742 8.19653 5.85742C9.43895 5.85864 10.446 6.86574 10.4473 8.10815Z" stroke="white" stroke-linecap="round" stroke-linejoin="round"/>
<path d="M23.2541 15.626C22.1288 14.4677 19.9646 12.1279 17.6115 12.1279C15.2571 12.1279 13.9001 17.289 11.6359 17.289C9.37178 17.289 7.31491 14.9554 5.50067 16.4514C3.68643 17.9462 1.96973 21.0028 1.96973 21.0028" stroke="white" stroke-linecap="round" stroke-linejoin="round"/>
</svg>
