<svg width="24" height="24" viewBox="0 0 24 24" fill="none" xmlns="http://www.w3.org/2000/svg">
<path d="M5.6298 3.79622C5.94421 3.30042 6.49046 3 7.07754 3H16.7322C17.2999 3 17.8308 3.28105 18.1499 3.75055L20.2706 6.8702C20.702 7.50491 20.662 8.35591 20.079 8.85501C19.4366 9.40497 18.5463 10 17.7017 10C16.1314 10 14.7741 8.63409 14.7741 8.63409C14.7741 8.63409 13.5961 10 12.0912 10C10.5863 10 9.62216 8.63409 9.62216 8.63409C9.62216 8.63409 8.32295 10 6.4517 10C5.41526 10 4.46802 9.36902 3.82913 8.80604C3.28908 8.33015 3.2564 7.53893 3.64188 6.93104L5.6298 3.79622Z" stroke="#005288" stroke-width="1.5" stroke-linecap="round" stroke-linejoin="round"/>
<path d="M4 13.0121L5.88452 18.6571C6.35165 20.0564 7.66147 21 9.13666 21H14.8622C16.3379 21 17.6481 20.0557 18.1148 18.6556L20 13" stroke="#005288" stroke-width="1.5" stroke-linecap="round" stroke-linejoin="round"/>
<circle cx="12" cy="15.5" r="2" stroke="#4D86AC" stroke-width="1.5" stroke-linecap="round" stroke-linejoin="round"/>
</svg>
