<svg width="24" height="24" viewBox="0 0 24 24" fill="none" xmlns="http://www.w3.org/2000/svg">
<path fill-rule="evenodd" clip-rule="evenodd" d="M20.9923 4C20.9923 3.44772 20.5446 3 19.9923 3H4.05922C3.49323 3 3.03821 3.46886 3.04453 4.03482C3.05192 4.69634 3.05235 5.62264 3.02362 6.65728V17.1642C2.99481 18.2877 2.99724 19.3205 3.0055 20.0306C3.01179 20.5711 3.45338 21 3.99394 21H20.002C20.5505 21 20.9962 20.5588 20.9983 20.0103C21.0009 19.2981 21.0016 18.2711 20.9923 17.1642V8.17452V4Z" stroke="#005288" stroke-width="1.5" stroke-linecap="round" stroke-linejoin="round"/>
<path d="M17.5 15H10.5" stroke="#4D86AC" stroke-width="1.5" stroke-linecap="round" stroke-linejoin="round"/>
<path d="M17.5 9H10.5" stroke="#4D86AC" stroke-width="1.5" stroke-linecap="round" stroke-linejoin="round"/>
<path d="M7.5 15H6.5" stroke="#4D86AC" stroke-width="1.5" stroke-linecap="round" stroke-linejoin="round"/>
<path d="M7.5 9H6.5" stroke="#4D86AC" stroke-width="1.5" stroke-linecap="round" stroke-linejoin="round"/>
</svg>
