<svg width="24" height="24" viewBox="0 0 24 24" fill="none" xmlns="http://www.w3.org/2000/svg">
<path d="M19.5 12V4C19.5 3.44772 19.0523 3 18.5 3H5.5C4.94772 3 4.5 3.44772 4.5 4V20C4.5 20.5523 4.94772 21 5.5 21H10" stroke="#005288" stroke-width="1.5" stroke-linecap="round" stroke-linejoin="round"/>
<path d="M8 8L14 8" stroke="#4D86AC" stroke-width="1.5" stroke-linecap="round" stroke-linejoin="round"/>
<path d="M8 12H12" stroke="#4D86AC" stroke-width="1.5" stroke-linecap="round" stroke-linejoin="round"/>
<path fill-rule="evenodd" clip-rule="evenodd" d="M16.7263 21.9051C16.9031 21.9726 17.0968 21.9726 17.2737 21.9051C18.0096 21.6241 19.9757 20.6927 19.9757 18.7602C19.9757 16.3825 20.0835 16.1969 19.845 15.9682C19.6061 15.7395 17.3902 15 17 15C16.6098 15 14.3939 15.7395 14.1554 15.9682C13.9164 16.1969 14.0243 16.3825 14.0243 18.7602C14.0243 20.6927 15.9903 21.6241 16.7263 21.9051Z" stroke="#4D86AC" stroke-width="1.5" stroke-linecap="round" stroke-linejoin="round"/>
</svg>
