<svg width="50" height="50" viewBox="0 0 50 50" fill="none" xmlns="http://www.w3.org/2000/svg">
<circle cx="25" cy="25" r="24" fill="white" stroke="#EEEFF2" stroke-linecap="round" stroke-linejoin="round"/>
<mask id="mask0_2831_36972" style="mask-type:alpha" maskUnits="userSpaceOnUse" x="1" y="1" width="48" height="48">
<circle cx="25" cy="25" r="24" fill="white"/>
</mask>
<g mask="url(#mask0_2831_36972)">
<path fill-rule="evenodd" clip-rule="evenodd" d="M30.12 29.16V32.68C30.12 33.0285 25 34.0835 25 34.0835C25 34.0835 19.88 33.1772 19.88 32.68C19.88 31.7393 19.8993 27.0163 19.88 22.6301C17.5869 19.6578 17.5869 17.8 19.4 15.88C21.2131 13.96 34.12 13 34.12 13C34.12 13 35.0884 22.3136 35.24 24.84C35.301 25.856 35.96 29.16 33.4 29.16C31.9607 29.16 30.12 29.16 30.12 29.16Z" fill="#CCDCE7"/>
<path fill-rule="evenodd" clip-rule="evenodd" d="M30.12 28.8596V30.7856C26.6908 30.1748 24.7175 28.8862 24.2 26.9199C25.6933 27.9333 27.6133 28.5733 29.96 28.8399C30.0136 28.846 30.067 28.8526 30.12 28.8596Z" fill="#B3CBDB"/>
<path d="M41.8 39.9287C42.8155 41.9934 43.6155 45.4067 44.2 50.1687H5.79999C6.38478 45.4062 7.18478 41.9929 8.19999 39.9287C9.21186 37.8713 18.6 33.9112 18.6 33.9112L31.4 33.9102C31.4 33.9102 40.7901 37.8754 41.8 39.9287Z" fill="#0C2A46"/>
<path fill-rule="evenodd" clip-rule="evenodd" d="M26.12 34.9191L26.92 49.6391H23.08L23.88 34.9191C23.88 34.9191 24.6267 34.1191 25 34.1191C25.3734 34.1191 26.12 34.9191 26.12 34.9191Z" fill="#FFB848"/>
<path fill-rule="evenodd" clip-rule="evenodd" d="M26.2819 37.898L23.7962 36.4618L23.88 34.9191C24.3778 34.3858 24.7511 34.1191 25 34.1191C25.2489 34.1191 25.6222 34.3858 26.12 34.9191L26.2819 37.898Z" fill="#FFDBA3"/>
<path fill-rule="evenodd" clip-rule="evenodd" d="M25 34.1175L23.4 36.9989L18.44 33.9589L19.88 31.8789L25 33.7703L30.12 31.8789L31.56 33.9589L26.6 36.9989L25 34.1175Z" fill="white"/>
<path d="M21.9632 17.8325C21.4544 17.3955 20.8362 17.1014 19.9623 17.5554C17.8904 18.6319 19.2654 22.7813 21.584 22.7003C22.3835 22.6724 22.0172 24.2667 19.88 25.3197C19.88 23.6397 17.32 19.4797 17.0967 15.6921C14.52 14.7329 15.16 10.895 16.9292 10.895C16.6462 7.37637 22.28 5.55969 24.4614 7.57824C26.68 4.91969 32.28 6.27969 32.6182 8.58607C36.4688 6.53043 39 12.4397 35.3944 14.7329C33.9108 15.6765 30.44 16.0361 25.43 16.0361C23.0257 16.0361 24.4084 21.6634 25.16 23.4797C26.12 25.7997 31.48 26.1197 33.16 25.8797C34.4719 25.6923 35.16 25.1597 35.24 24.8397C36.44 28.0397 34.92 29.9597 32.52 29.9597C28.44 29.9597 24.36 28.7597 23.72 25.7997C23.2106 23.444 23.2385 19.6422 21.9632 17.8325Z" fill="#282828"/>
</g>
</svg>
