<svg width="24" height="24" viewBox="0 0 24 24" fill="none" xmlns="http://www.w3.org/2000/svg">
<path d="M21 11.069C21 15.5253 16.9706 19.1379 12 19.1379C11.1065 19.1379 10.2434 19.0212 9.42859 18.8038C8.60482 18.584 3 21 3 21C3 21 5.73454 16.9132 5.16956 16.3234C3.81722 14.9116 3.00002 13.0759 3.00002 11.069C3.00002 6.6126 7.02945 3 12 3C16.9706 3 21 6.6126 21 11.069Z" stroke="#005288" stroke-width="1.5" stroke-linecap="round" stroke-linejoin="round"/>
<path d="M11.9975 13.4763L10.2125 14.4559C10.1719 14.4784 10.1275 14.4924 10.0818 14.497C10.036 14.5015 9.98984 14.4966 9.94592 14.4825C9.90199 14.4683 9.86116 14.4453 9.82578 14.4146C9.7904 14.3839 9.76115 14.3463 9.73972 14.3038C9.7036 14.233 9.6913 14.1515 9.70481 14.0726L10.0452 11.9948L8.60209 10.5224C8.53671 10.4537 8.5 10.3607 8.5 10.2638C8.5 10.1669 8.53671 10.0739 8.60209 10.0052C8.65619 9.94789 8.72665 9.91052 8.80285 9.89874L10.7988 9.59453L11.6906 7.70384C11.7109 7.66074 11.7391 7.62225 11.7736 7.59058C11.8082 7.55891 11.8484 7.53468 11.8919 7.51927C11.9354 7.50387 11.9814 7.4976 12.0272 7.50082C12.0731 7.50404 12.1179 7.51669 12.159 7.53804C12.2282 7.57309 12.2841 7.6315 12.3176 7.70384L13.2108 9.59453L15.2053 9.89874C15.2963 9.9141 15.3778 9.96628 15.4322 10.044C15.4867 10.1217 15.5097 10.2187 15.4963 10.314C15.4846 10.3931 15.4489 10.4661 15.3944 10.5224L13.9498 11.9948L14.2903 14.0726C14.3014 14.1398 14.2943 14.2091 14.2697 14.2723C14.2451 14.3356 14.2041 14.3904 14.1512 14.4305C14.0983 14.4706 14.0357 14.4944 13.9705 14.4991C13.9054 14.5039 13.8402 14.4894 13.7825 14.4574L11.9975 13.4763Z" fill="#4D86AC"/>
</svg>
