<svg width="24" height="24" viewBox="0 0 24 24" fill="none" xmlns="http://www.w3.org/2000/svg">
<path fill-rule="evenodd" clip-rule="evenodd" d="M5.99829 10C5.99829 9.44772 5.55057 9 4.99829 9H3.01934C2.46158 9 2.01091 9.45598 2.01084 10.0137C2.0108 10.312 2.00939 10.6593 2.00525 11.0318V16.869C2.00098 17.2853 1.9998 17.6791 2.00003 18.0123C2.00041 18.5599 2.44568 19 2.99327 19H5.00218C5.55294 19 5.99987 18.555 5.99999 18.0042C6.00006 17.6717 5.99968 17.2803 5.99829 16.869V11.8747V10Z" stroke="#4D86AC" stroke-width="1.5" stroke-linecap="round" stroke-linejoin="round"/>
<path fill-rule="evenodd" clip-rule="evenodd" d="M13.4979 8C13.4979 7.44771 13.0501 7 12.4979 7H9.52124C8.96326 7 8.51246 7.45625 8.51339 8.01423C8.51406 8.4133 8.51274 8.90409 8.50656 9.43818V16.4428C8.50031 17.0276 8.49935 17.5755 8.50033 18.0129C8.50154 18.5603 8.9467 19 9.49408 19H12.5019C13.0526 19 13.4995 18.5552 13.4999 18.0045C13.5002 17.5669 13.4999 17.0212 13.4979 16.4428V10.4497V8Z" stroke="#005288" stroke-width="1.5" stroke-linecap="round" stroke-linejoin="round"/>
<path fill-rule="evenodd" clip-rule="evenodd" d="M21.9974 6C21.9974 5.44772 21.5497 5 20.9974 5H17.023C16.4648 5 16.014 5.45667 16.0157 6.01482C16.0172 6.50736 16.0162 7.14403 16.0079 7.84455V16.0166C15.9995 16.7743 15.999 17.479 16.0009 18.013C16.0027 18.5602 16.4478 19 16.995 19H21.0016C21.5523 19 21.9991 18.5548 21.9997 18.0042C22.0003 17.4693 22.0001 16.7665 21.9974 16.0166V9.02463V6Z" stroke="#005288" stroke-width="1.5" stroke-linecap="round" stroke-linejoin="round"/>
</svg>
