<svg width="24" height="24" viewBox="0 0 24 24" fill="none" xmlns="http://www.w3.org/2000/svg">
<path d="M12 3.95057L12 0.75C14.2253 0.75 16.4006 1.40996 18.2507 2.64636C20.1009 3.88277 21.5428 5.64008 22.3942 7.69605C23.2455 9.75203 23.468 12.0143 23.0334 14.1967C22.5989 16.3792 21.5269 18.3837 19.9531 19.9569C18.3792 21.53 16.3741 22.601 14.1915 23.0345C12.0089 23.468 9.74669 23.2444 7.69112 22.3921C5.63555 21.5398 3.87891 20.097 2.64338 18.2463C1.40786 16.3955 0.748961 14.2199 0.750016 11.9947L4.48398 11.9947" stroke="white" stroke-linecap="round" stroke-linejoin="round"/>
<path d="M1.29407 8.25515C1.85394 6.68476 2.75538 5.25824 3.93334 4.07843C5.11131 2.89862 6.53645 1.99494 8.10596 1.43262" stroke="white" stroke-linecap="round" stroke-linejoin="round"/>
<path d="M11.4186 10.8847L7.68468 5.25398" stroke="#FCFCFC" stroke-miterlimit="10" stroke-linecap="round"/>
<path d="M12.1936 13.5005C12.9154 13.5005 13.5005 12.9154 13.5005 12.1936C13.5005 11.4718 12.9154 10.8867 12.1936 10.8867C11.4718 10.8867 10.8867 11.4718 10.8867 12.1936C10.8867 12.9154 11.4718 13.5005 12.1936 13.5005Z" stroke="#FCFCFC" stroke-miterlimit="10" stroke-linecap="round"/>
</svg>
