<svg width="24" height="18" viewBox="0 0 24 18" fill="none" xmlns="http://www.w3.org/2000/svg">
<path fill-rule="evenodd" clip-rule="evenodd" d="M16.9964 13.0438C17.0888 15.1376 15.399 16.9081 13.2224 16.9971C13.062 17.0039 5.24601 16.9881 5.24601 16.9881C3.0799 17.1525 1.18411 15.596 1.01326 13.5101C1.00039 13.3546 1.0039 4.96822 1.0039 4.96822C0.907938 2.87218 2.59542 1.09713 4.77324 1.00477C4.9359 0.996889 12.7414 1.01153 12.7414 1.01153C14.918 0.849344 16.8197 2.41715 16.9882 4.51319C16.9999 4.66412 16.9964 13.0438 16.9964 13.0438Z" stroke="#FFFF00" stroke-linecap="round" stroke-linejoin="round"/>
<path d="M17 6.63073L20.7056 3.34705C21.6238 2.53314 23.0011 3.24227 23 4.52528L22.9865 13.4795C22.9854 14.7625 21.6069 15.4656 20.6909 14.6517L17 11.368" stroke="#FFFF00" stroke-linecap="round" stroke-linejoin="round"/>
</svg>
